<svg xmlns="http://www.w3.org/2000/svg" xmlns:xlink="http://www.w3.org/1999/xlink" width="320" height="140" version="1.1" viewBox="0 0 320 140"><title>scalability</title><desc>Created with Sketch.</desc><defs><radialGradient id="radialGradient-1" cx="50%" cy="0%" r="100%" fx="50%" fy="0%"><stop offset="0%" stop-color="#266A65"/><stop offset="100%" stop-color="#19255C"/></radialGradient><circle id="path-2" cx="90" cy="52" r="50"/><filter id="filter-3" width="134%" height="134%" x="-17%" y="-16%" filterUnits="objectBoundingBox"><feMorphology in="SourceAlpha" operator="dilate" radius=".5" result="shadowSpreadOuter1"/><feOffset dx="0" dy="1" in="shadowSpreadOuter1" result="shadowOffsetOuter1"/><feGaussianBlur in="shadowOffsetOuter1" result="shadowBlurOuter1" stdDeviation="5"/><feColorMatrix in="shadowBlurOuter1" type="matrix" values="0 0 0 0 0.105882353 0 0 0 0 0.105882353 0 0 0 0 0.250980392 0 0 0 1 0"/></filter></defs><g id="页面-1" fill="none" fill-rule="evenodd" stroke="none" stroke-width="1"><g id="Darkmode" transform="translate(-384.000000, -398.000000)"><g id="Technical" transform="translate(0.000000, 341.000000)"><g id="scalability"><g transform="translate(384.000000, 57.000000) translate(66.000000, 22.000000)"><circle id="Oval-14" cx="44.5" cy="39.5" r="39.5" stroke="#F4F4F4" opacity=".5"/><circle id="Oval-14" cx="6.5" cy="28.5" r="6.5" fill="#FFF" stroke="#FFF" stroke-width=".3" opacity=".8"/><g id="Oval-13"><use fill="#000" fill-opacity="1" filter="url(#filter-3)" xlink:href="#path-2"/><use fill="url(#radialGradient-1)" fill-rule="evenodd" xlink:href="#path-2"/></g><g id="Group-4" transform="translate(79.398328, 51.679949) rotate(-330.000000) translate(-79.398328, -51.679949) translate(76.898328, 30.179949)"><line id="Line-2" x1="2.227" x2="2.227" y1="2.424" y2="41.043" stroke="#FFF" stroke-linecap="square" stroke-width=".64"/><ellipse id="Oval-15" cx="2.227" cy="2.262" fill="#FFF" rx="2.227" ry="2.262"/><ellipse id="Oval-15-Copy" cx="2.227" cy="39.75" fill="#FFF" rx="2.227" ry="2.262"/></g><g id="Group" opacity=".3" transform="translate(82.000000, 23.000000)"><g id="Group-4" transform="translate(16.000000, 37.000000) rotate(-330.000000) translate(-16.000000, -37.000000) translate(14.000000, 20.000000)"><line id="Line-2" x1="1.765" x2="1.765" y1="1.92" y2="32.52" stroke="#FFF" stroke-linecap="square" stroke-width=".64"/><ellipse id="Oval-15" cx="1.765" cy="1.792" fill="#FFF" rx="1.765" ry="1.792"/><ellipse id="Oval-15-Copy" cx="1.765" cy="31.496" fill="#FFF" rx="1.765" ry="1.792"/></g><g id="Group-4" transform="translate(13.500000, 20.500000) rotate(-330.000000) translate(-13.500000, -20.500000) translate(11.000000, -1.000000)"><line id="Line-2" x1="2.227" x2="2.227" y1="2.424" y2="41.043" stroke="#FFF" stroke-linecap="square" stroke-width=".64"/><ellipse id="Oval-15" cx="2.227" cy="2.262" fill="#FFF" rx="2.227" ry="2.262"/><ellipse id="Oval-15-Copy" cx="2.227" cy="39.75" fill="#FFF" rx="2.227" ry="2.262"/></g></g></g></g></g></g></g></svg>