<svg xmlns="http://www.w3.org/2000/svg" xmlns:xlink="http://www.w3.org/1999/xlink" width="320" height="140" version="1.1" viewBox="0 0 320 140"><title>security</title><desc>Created with Sketch.</desc><defs><radialGradient id="radialGradient-1" cx="50%" cy="0%" r="100%" fx="50%" fy="0%"><stop offset="0%" stop-color="#223854"/><stop offset="100%" stop-color="#181C3F"/></radialGradient><circle id="path-2" cx="50" cy="50" r="50"/><filter id="filter-3" width="134%" height="134%" x="-17%" y="-16%" filterUnits="objectBoundingBox"><feMorphology in="SourceAlpha" operator="dilate" radius=".5" result="shadowSpreadOuter1"/><feOffset dx="0" dy="1" in="shadowSpreadOuter1" result="shadowOffsetOuter1"/><feGaussianBlur in="shadowOffsetOuter1" result="shadowBlurOuter1" stdDeviation="5"/><feColorMatrix in="shadowBlurOuter1" type="matrix" values="0 0 0 0 0 0 0 0 0 0 0 0 0 0 0 0 0 0 0.5 0"/></filter></defs><g id="页面-1" fill="none" fill-rule="evenodd" stroke="none" stroke-width="1"><g id="Regular" transform="translate(-1216.000000, -398.000000)"><g id="Technical" transform="translate(0.000000, 341.000000)"><g id="security"><g transform="translate(1216.000000, 57.000000) translate(108.000000, 24.000000)"><circle id="Oval-14" cx="80.5" cy="57.5" r="39.5" stroke="#1F2E4D" opacity=".5"/><circle id="Oval-14" cx="113.5" cy="79.5" r="6.5" fill="#1D2949" stroke="#1F314F" stroke-width=".3" opacity=".8"/><g id="Oval-13-Copy-2"><use fill="#000" fill-opacity="1" filter="url(#filter-3)" xlink:href="#path-2"/><use fill="url(#radialGradient-1)" fill-rule="evenodd" xlink:href="#path-2"/></g><ellipse id="Oval-15" cx="49.265" cy="52.092" fill="#FFF" opacity=".3" rx="1.765" ry="1.792"/><polygon id="Triangle-2" stroke="#FFF" points="49.434 26 71.867 64 27 64"/><g id="Group-4" fill="#FFF" transform="translate(49.415064, 26.415064) rotate(-330.000000) translate(-49.415064, -26.415064) translate(46.915064, 23.915064)"><ellipse id="Oval-15" cx="2.227" cy="2.262" rx="2.227" ry="2.262"/></g><line id="Line-2" x1="49.25" x2="49.25" y1="25" y2="63.619" stroke="#FFF" stroke-linecap="square" stroke-width=".64" opacity=".3"/><line id="Line-2" x1="60.5" x2="27.5" y1="46.5" y2="63.5" stroke="#FFF" stroke-linecap="square" stroke-width=".64" opacity=".3"/><line id="Line-2" x1="71.5" x2="38.5" y1="63.619" y2="46.5" stroke="#FFF" stroke-linecap="square" stroke-width=".64" opacity=".3"/><g id="Group-4-Copy" fill="#FFF" transform="translate(27.415064, 63.415064) rotate(-330.000000) translate(-27.415064, -63.415064) translate(24.915064, 60.915064)"><ellipse id="Oval-15" cx="2.227" cy="2.262" rx="2.227" ry="2.262"/></g><g id="Group-4-Copy-2" fill="#FFF" transform="translate(71.415064, 63.415064) rotate(-330.000000) translate(-71.415064, -63.415064) translate(68.915064, 60.915064)"><ellipse id="Oval-15" cx="2.227" cy="2.262" rx="2.227" ry="2.262"/></g></g></g></g></g></g></svg>